<svg xmlns="http://www.w3.org/2000/svg" version="1.1" xmlns:xlink="http://www.w3.org/1999/xlink" xmlns:svgjs="http://svgjs.dev/svgjs" width="128" height="128" viewBox="0 0 128 128"><g transform="matrix(0.8046875,0,0,0.8046875,12.760752631578946,12.760752631578946)"><svg viewBox="0 0 95 95" data-background-color="#ffffff" preserveAspectRatio="xMidYMid meet" height="128" width="128" xmlns="http://www.w3.org/2000/svg" xmlns:xlink="http://www.w3.org/1999/xlink"><g id="tight-bounds" transform="matrix(1,0,0,1,-0.24049999999999727,-0.24049999999999727)"><svg viewBox="0 0 95.481 95.481" height="95.481" width="95.481"><g><svg viewBox="0 0 95.481 95.481" height="95.481" width="95.481"><g><svg viewBox="0 0 95.481 95.481" height="95.481" width="95.481"><g id="textblocktransform"><svg viewBox="0 0 95.481 95.481" height="95.481" width="95.481" id="textblock"><g><svg viewBox="0 0 95.481 95.481" height="95.481" width="95.481"><g><svg viewBox="0 0 95.481 95.481" height="95.481" width="95.481"><g><svg xmlns="http://www.w3.org/2000/svg" xmlns:xlink="http://www.w3.org/1999/xlink" version="1.0" x="0" y="0" viewBox="1 1 48 48" enable-background="new 0 0 50 50" xml:space="preserve" height="95.481" width="95.481" class="icon-icon-0" data-fill-palette-color="accent" id="icon-0"></svg></g></svg></g></svg></g></svg></g></svg></g></svg></g><defs></defs><mask id="ec863f87-3251-4f9a-a4e9-d381212cb52b"><g id="SvgjsG1117"><svg viewBox="0 0 95.481 95.481" height="95.481" width="95.481"><g><svg viewBox="0 0 95.481 95.481" height="95.481" width="95.481"><g><svg viewBox="0 0 95.481 95.481" height="95.481" width="95.481"><g id="SvgjsG1116"><svg viewBox="0 0 95.481 95.481" height="95.481" width="95.481" id="SvgjsSvg1115"><g><svg viewBox="0 0 95.481 95.481" height="95.481" width="95.481"><g><svg viewBox="0 0 95.481 95.481" height="95.481" width="95.481"><g><svg xmlns="http://www.w3.org/2000/svg" xmlns:xlink="http://www.w3.org/1999/xlink" version="1.0" x="0" y="0" viewBox="1 1 48 48" enable-background="new 0 0 50 50" xml:space="preserve" height="95.481" width="95.481" class="icon-icon-0" data-fill-palette-color="accent" id="SvgjsSvg1114"><g fill="white"><g fill="white"><rect x="1" y="1" fill="white" width="23" height="5"></rect><rect x="1" y="10" fill="white" width="23" height="5"></rect><rect x="1" y="19" fill="white" width="23" height="5"></rect></g><g fill="white"><rect x="26" y="26" fill="white" width="23" height="5"></rect><rect x="26" y="35" fill="white" width="23" height="5"></rect><rect x="26" y="44" fill="white" width="23" height="5"></rect></g><g fill="white"><rect x="19" y="26" fill="white" width="5" height="23"></rect><rect x="10" y="26" fill="white" width="5" height="23"></rect><rect x="1" y="26" fill="white" width="5" height="23"></rect></g><g fill="white"><rect x="44" y="1" fill="white" width="5" height="23"></rect><rect x="35" y="1" fill="white" width="5" height="23"></rect><rect x="26" y="1" fill="white" width="5" height="23"></rect></g></g></svg></g></svg></g></svg></g></svg></g></svg></g></svg></g><defs><mask></mask></defs></svg></g></mask><linearGradient x1="0" x2="1" y1="0.578" y2="0.595" id="628508d6-eaf4-451c-a13b-9a5882690845"><stop stop-color="#dede50" offset="0"></stop><stop stop-color="#559c49" offset="1"></stop></linearGradient><rect width="95.481" height="95.481" fill="#ffffff" mask="url(#ec863f87-3251-4f9a-a4e9-d381212cb52b)" data-fill-palette-color="accent"></rect></svg><rect width="95.481" height="95.481" fill="none" stroke="none" visibility="hidden"></rect></g></svg></g></svg>