<svg xmlns="http://www.w3.org/2000/svg" version="1.1" xmlns:xlink="http://www.w3.org/1999/xlink" xmlns:svgjs="http://svgjs.dev/svgjs" width="1000" height="340" viewBox="0 0 1000 340"><g transform="matrix(1,0,0,1,-0.6060606060606233,0.47689141167535354)"><svg viewBox="0 0 396 135" data-background-color="#ffffff" preserveAspectRatio="xMidYMid meet" height="340" width="1000" xmlns="http://www.w3.org/2000/svg" xmlns:xlink="http://www.w3.org/1999/xlink"><g id="tight-bounds" transform="matrix(1,0,0,1,0.2400000000000091,-0.18935394287109375)"><svg viewBox="0 0 395.52 135.3787046424143" height="135.3787046424143" width="395.52"><rect width="395.5199890136719" height="135.3787078857422" fill="#000000" mask="url(#bf8d57f5-b0b9-46cc-bbf4-dce4d88eb831)" data-fill-palette-color="tertiary"></rect><g><svg viewBox="0 0 660.909154347196 226.21618426839822" height="135.3787046424143" width="395.52"><g transform="matrix(1,0,0,1,265.38915434719604,57.70081611788596)"><svg viewBox="0 0 395.52 110.81455203262631" height="110.81455203262631" width="395.52"><g id="textblocktransform"><svg viewBox="0 0 395.52 110.81455203262631" height="110.81455203262631" width="395.52" id="textblock"><g><rect width="163.310208" height="7.482037285050381" y="102.9429311601111" x="232.209792" fill="#000000" data-fill-palette-color="tertiary"></rect></g><g><svg viewBox="0 0 395.52 82.96686253324735" height="82.96686253324735" width="395.52"><g transform="matrix(1,0,0,1,0,0)"><svg width="395.52" viewBox="2.049999952316284 -33.75 163.0306854248047 34.21083068847656" height="82.96686253324735" data-palette-color="url(#0e07755b-92d2-4a03-b69f-6ac8dc81fe64)"></svg></g></svg></g><g transform="matrix(1,0,0,1,0,102.55334757264626)"><svg viewBox="0 0 232.209792 8.261204459980057" height="8.261204459980057" width="232.209792"><g transform="matrix(1,0,0,1,8,0)"><svg width="216.209792" viewBox="4.650000095367432 -35.54999923706055 952.5699462890625 36.39999771118164" height="8.261204459980057" data-palette-color="url(#6efb4bad-2241-4855-8132-182b649c4862)"></svg></g></svg></g></svg></g></svg></g><g><svg viewBox="0 0 226.21618426839822 226.21618426839822" height="226.21618426839822" width="226.21618426839822"><g><svg></svg></g><g id="icon-0"><svg viewBox="0 0 226.21618426839822 226.21618426839822" height="226.21618426839822" width="226.21618426839822"><g><path d="M0 113.108c0-62.468 50.64-113.108 113.108-113.108 62.468 0 113.108 50.64 113.108 113.108 0 62.468-50.64 113.108-113.108 113.108-62.468 0-113.108-50.64-113.108-113.108zM113.108 218.734c58.336 0 105.626-47.29 105.626-105.626 0-58.336-47.29-105.626-105.626-105.626-58.336 0-105.626 47.29-105.626 105.626 0 58.336 47.29 105.626 105.626 105.626z" data-fill-palette-color="tertiary" fill="#000000" stroke="transparent"></path></g><g transform="matrix(1,0,0,1,48.676218184995165,48.676218184995165)"><svg viewBox="0 0 128.8637478984079 128.8637478984079" height="128.8637478984079" width="128.8637478984079"><g><svg xmlns="http://www.w3.org/2000/svg" xmlns:xlink="http://www.w3.org/1999/xlink" version="1.0" x="0" y="0" viewBox="1 1 48 48" enable-background="new 0 0 50 50" xml:space="preserve" height="128.8637478984079" width="128.8637478984079" class="icon-s-0" data-fill-palette-color="accent" id="s-0"></svg></g></svg></g></svg></g></svg></g></svg></g><defs></defs><mask id="fca5401c-3064-4872-a9ff-1b1766fc2c45"><g id="SvgjsG1366"><svg viewBox="0 0 395.52 135.3787046424143" height="135.3787046424143" width="395.52"><g><svg viewBox="0 0 660.909154347196 226.21618426839822" height="135.3787046424143" width="395.52"><g transform="matrix(1,0,0,1,265.38915434719604,57.70081611788596)"><svg viewBox="0 0 395.52 110.81455203262631" height="110.81455203262631" width="395.52"><g id="SvgjsG1365"><svg viewBox="0 0 395.52 110.81455203262631" height="110.81455203262631" width="395.52" id="SvgjsSvg1364"><g></g><g><svg viewBox="0 0 395.52 82.96686253324735" height="82.96686253324735" width="395.52"><g transform="matrix(1,0,0,1,0,0)"><svg width="395.52" viewBox="2.049999952316284 -33.75 163.0306854248047 34.21083068847656" height="82.96686253324735" data-palette-color="url(#0e07755b-92d2-4a03-b69f-6ac8dc81fe64)"><path d="M2.05-1.64L2.05-9.66Q4.73-8.27 7.46-7.56 10.19-6.85 12.3-6.85 14.41-6.85 15.38-7.52 16.35-8.19 16.35-9.33L16.35-9.33Q16.35-10.01 15.98-10.52L15.98-10.52Q15.57-11.02 14.83-11.51 14.08-12.01 10.54-13.62 7-15.24 5.46-16.56L5.46-16.56Q2.28-19.29 2.28-23.94 2.28-28.59 5.61-31.17L5.61-31.17Q8.97-33.75 14.81-33.75L14.81-33.75Q19.94-33.75 25.35-31.34L25.35-31.34 22.6-24.42Q17.95-26.54 14.53-26.54L14.53-26.54Q12.87-26.54 12.03-25.96 11.2-25.38 11.2-24.41 11.2-23.43 12.22-22.65 13.25-21.87 17.62-19.88 21.99-17.9 23.66-15.67L23.66-15.67Q25.35-13.5 25.35-10.11L25.35-10.11Q25.4-5.41 21.8-2.45 18.2 0.51 12.31 0.46L12.31 0.46Q8.95 0.46 6.66-0.04 4.37-0.53 2.05-1.64L2.05-1.64ZM49.74-33.39L60.72 0 50.88 0 49.26-6.24 38.45-6.24 36.78 0 26.89 0 37.74-33.39 49.74-33.39ZM40.32-13.6L40.32-13.6 47.39-13.6Q44.26-25.43 43.8-27.91L43.8-27.91Q43.3-24.77 40.32-13.6ZM83.59-13.78L83.59-33.27 92.59-33.27 92.59-13.25Q92.59-6.7 88.9-3.12 85.21 0.46 78.33 0.46 71.46 0.46 67.77-3.01L67.77-3.01Q64.13-6.5 64.13-13.04L64.13-13.04 64.13-33.27 73.15-33.27 73.15-13.75Q73.15-10.26 74.45-8.65 75.75-7.03 78.43-7.03 81.11-7.03 82.35-8.62 83.59-10.21 83.59-13.78L83.59-13.78ZM122.34-25.91L114.25-25.91 114.25 0 105.25 0 105.25-25.91 97.14-25.91 97.14-33.27 122.34-33.27 122.34-25.91ZM136.11-33.27L136.11 0 127.09 0 127.09-33.27 136.11-33.27ZM141.77-1.64L141.77-9.66Q144.45-8.27 147.18-7.56 149.91-6.85 152.02-6.85 154.13-6.85 155.11-7.52 156.08-8.19 156.08-9.33L156.08-9.33Q156.08-10.01 155.7-10.52L155.7-10.52Q155.3-11.02 154.55-11.51 153.8-12.01 150.27-13.62 146.73-15.24 145.18-16.56L145.18-16.56Q142-19.29 142-23.94 142-28.59 145.34-31.17L145.34-31.17Q148.7-33.75 154.54-33.75L154.54-33.75Q159.67-33.75 165.08-31.34L165.08-31.34 162.32-24.42Q157.67-26.54 154.26-26.54L154.26-26.54Q152.59-26.54 151.76-25.96 150.92-25.38 150.92-24.41 150.92-23.43 151.95-22.65 152.97-21.87 157.34-19.88 161.72-17.9 163.38-15.67L163.38-15.67Q165.08-13.5 165.08-10.11L165.08-10.11Q165.13-5.41 161.53-2.45 157.92 0.51 152.04 0.46L152.04 0.46Q148.67 0.46 146.39-0.04 144.1-0.53 141.77-1.64L141.77-1.64Z" opacity="1" transform="matrix(1,0,0,1,0,0)" fill="white" class="wordmark-text-0" id="SvgjsPath1363"></path></svg></g></svg></g><g transform="matrix(1,0,0,1,0,102.55334757264626)"><svg viewBox="0 0 232.209792 8.261204459980057" height="8.261204459980057" width="232.209792"><g transform="matrix(1,0,0,1,8,0)"><svg width="216.209792" viewBox="4.650000095367432 -35.54999923706055 952.5699462890625 36.39999771118164" height="8.261204459980057" data-palette-color="url(#6efb4bad-2241-4855-8132-182b649c4862)"></svg></g></svg></g></svg></g></svg></g><g><svg viewBox="0 0 226.21618426839822 226.21618426839822" height="226.21618426839822" width="226.21618426839822"><g><svg></svg></g><g id="SvgjsG1361"><svg viewBox="0 0 226.21618426839822 226.21618426839822" height="226.21618426839822" width="226.21618426839822"><g></g><g transform="matrix(1,0,0,1,48.676218184995165,48.676218184995165)"><svg viewBox="0 0 128.8637478984079 128.8637478984079" height="128.8637478984079" width="128.8637478984079"><g><svg xmlns="http://www.w3.org/2000/svg" xmlns:xlink="http://www.w3.org/1999/xlink" version="1.0" x="0" y="0" viewBox="1 1 48 48" enable-background="new 0 0 50 50" xml:space="preserve" height="128.8637478984079" width="128.8637478984079" class="icon-s-0" data-fill-palette-color="accent" id="SvgjsSvg1360"></svg></g></svg></g></svg></g></svg></g></svg></g><defs><mask></mask></defs></svg></g></mask><linearGradient x1="0" x2="1" y1="0.578" y2="0.595" id="0e07755b-92d2-4a03-b69f-6ac8dc81fe64"><stop stop-color="#dede50" offset="0"></stop><stop stop-color="#559c49" offset="1"></stop></linearGradient><rect width="395.5199890136719" height="135.3787078857422" fill="#000000" mask="url(#fca5401c-3064-4872-a9ff-1b1766fc2c45)" data-fill-palette-color="primary"></rect><mask id="9079fb82-2b16-4d65-a9cd-dbf78e7c90c7"><g id="SvgjsG1378"><svg viewBox="0 0 395.52 135.3787046424143" height="135.3787046424143" width="395.52"><g><svg viewBox="0 0 660.909154347196 226.21618426839822" height="135.3787046424143" width="395.52"><g transform="matrix(1,0,0,1,265.38915434719604,57.70081611788596)"><svg viewBox="0 0 395.52 110.81455203262631" height="110.81455203262631" width="395.52"><g id="SvgjsG1377"><svg viewBox="0 0 395.52 110.81455203262631" height="110.81455203262631" width="395.52" id="SvgjsSvg1376"><g></g><g><svg viewBox="0 0 395.52 82.96686253324735" height="82.96686253324735" width="395.52"><g transform="matrix(1,0,0,1,0,0)"><svg width="395.52" viewBox="2.049999952316284 -33.75 163.0306854248047 34.21083068847656" height="82.96686253324735" data-palette-color="url(#0e07755b-92d2-4a03-b69f-6ac8dc81fe64)"></svg></g></svg></g><g transform="matrix(1,0,0,1,0,102.55334757264626)"><svg viewBox="0 0 232.209792 8.261204459980057" height="8.261204459980057" width="232.209792"><g transform="matrix(1,0,0,1,8,0)"><svg width="216.209792" viewBox="4.650000095367432 -35.54999923706055 952.5699462890625 36.39999771118164" height="8.261204459980057" data-palette-color="url(#6efb4bad-2241-4855-8132-182b649c4862)"><path d="M12.85-28.8L12.85-20.45 24.85-20.45 24.85-14.75 12.85-14.75 12.85-5.9 27.3-5.9 27.3 0 4.65 0 4.65-34.65 27.3-34.65 26.45-28.8 12.85-28.8ZM57.2-34.65L59.15 0 51.95 0 51.55-14.85Q51.5-15.95 51.5-17.85L51.5-17.85Q51.5-20.35 51.65-22.73 51.8-25.1 52-27.7L52-27.7 48.1-5.9 41.9-5.9 37.65-27.7Q38.2-21.95 38.2-17.35L38.2-17.35 38.15-14.7 37.9 0 30.85 0 32.8-34.65 41.25-34.65 45.1-12.25 48.75-34.65 57.2-34.65ZM88.8-23.35Q88.8-17.5 85.12-14.53 81.45-11.55 75.09-11.55L75.09-11.55 71.3-11.55 71.3 0 63.1 0 63.1-34.65 74-34.65Q81.2-34.65 85-31.83 88.8-29 88.8-23.35L88.8-23.35ZM80.4-23.35Q80.4-28.8 74.15-28.8L74.15-28.8 71.3-28.8 71.3-17.45 74.55-17.45Q77.34-17.45 78.87-18.9 80.4-20.35 80.4-23.35L80.4-23.35ZM118.84-17.35Q118.84-8.9 115.27-4.03 111.69 0.85 104.99 0.85L104.99 0.85Q98.24 0.85 94.69-3.98 91.14-8.8 91.14-17.35L91.14-17.35Q91.14-25.8 94.72-30.68 98.29-35.55 104.99-35.55L104.99-35.55Q111.74-35.55 115.29-30.73 118.84-25.9 118.84-17.35L118.84-17.35ZM110.44-17.35Q110.44-23.75 109.17-26.65 107.89-29.55 104.99-29.55L104.99-29.55Q102.09-29.55 100.82-26.65 99.54-23.75 99.54-17.35L99.54-17.35Q99.54-10.95 100.82-8.05 102.09-5.15 104.99-5.15L104.99-5.15Q107.94-5.15 109.19-8.05 110.44-10.95 110.44-17.35L110.44-17.35ZM150.14-34.65L146.09 0 137.59 0 135.04-24.8 132.24 0 123.59 0 119.84-34.65 127.49-34.65 128.69-7 131.54-30.65 138.64-30.65 141.29-7 142.99-34.65 150.14-34.65ZM162.84-28.8L162.84-20.45 174.84-20.45 174.84-14.75 162.84-14.75 162.84-5.9 177.29-5.9 177.29 0 154.64 0 154.64-34.65 177.29-34.65 176.44-28.8 162.84-28.8ZM208.04-24.1Q208.04-20.6 206.16-18.23 204.29-15.85 201.14-14.6L201.14-14.6 210.19 0 200.89 0 193.39-13.25 191.09-13.25 191.09 0 182.89 0 182.89-34.65 193.79-34.65Q200.94-34.65 204.49-32.05 208.04-29.45 208.04-24.1L208.04-24.1ZM199.59-24.1Q199.59-26.6 198.16-27.75 196.74-28.9 193.79-28.9L193.79-28.9 191.09-28.9 191.09-18.9 194.14-18.9Q196.84-18.9 198.21-20.15 199.59-21.4 199.59-24.1L199.59-24.1ZM236.23-34.65L236.23-28.65 229.08-28.65 229.08-6.05 236.23-6.05 236.23 0 213.73 0 213.73-6.05 220.88-6.05 220.88-28.65 213.73-28.65 213.73-34.65 236.23-34.65ZM257.43 0L248.33-27.85Q248.83-24.05 249.18-20.53 249.53-17 249.53-13.05L249.53-13.05 249.53 0 242.58 0 242.58-34.65 252.83-34.65 261.63-6.9Q260.43-14.6 260.43-21.4L260.43-21.4 260.43-34.65 267.38-34.65 267.38 0 257.43 0ZM286.28 0.85Q278.88 0.85 275-3.83 271.13-8.5 271.13-17.4L271.13-17.4Q271.13-23.15 273.23-27.25 275.33-31.35 279-33.45 282.68-35.55 287.23-35.55L287.23-35.55Q290.78-35.55 293.4-34.43 296.03-33.3 298.23-31.25L298.23-31.25 293.93-26.8Q292.28-28.25 290.85-28.9 289.43-29.55 287.63-29.55L287.63-29.55Q283.88-29.55 281.73-26.58 279.58-23.6 279.58-17.35L279.58-17.35Q279.58-10.65 281.18-7.9 282.78-5.15 286.33-5.15L286.33-5.15Q288.68-5.15 290.63-6.2L290.63-6.2 290.63-14.15 286.28-14.15 285.48-19.85 298.38-19.85 298.38-2.65Q292.68 0.85 286.28 0.85L286.28 0.85ZM349.07-13L349.07 0 340.87 0 340.87-12.95 329.57-34.65 338.57-34.65 345.12-19.75 351.72-34.65 360.37-34.65 349.07-13ZM388.82-17.35Q388.82-8.9 385.25-4.03 381.67 0.85 374.97 0.85L374.97 0.85Q368.22 0.85 364.67-3.98 361.12-8.8 361.12-17.35L361.12-17.35Q361.12-25.8 364.7-30.68 368.27-35.55 374.97-35.55L374.97-35.55Q381.72-35.55 385.27-30.73 388.82-25.9 388.82-17.35L388.82-17.35ZM380.42-17.35Q380.42-23.75 379.15-26.65 377.87-29.55 374.97-29.55L374.97-29.55Q372.07-29.55 370.8-26.65 369.52-23.75 369.52-17.35L369.52-17.35Q369.52-10.95 370.8-8.05 372.07-5.15 374.97-5.15L374.97-5.15Q377.92-5.15 379.17-8.05 380.42-10.95 380.42-17.35L380.42-17.35ZM417.87-34.65L417.87-11.6Q417.87-8 416.42-5.18 414.97-2.35 412.07-0.75 409.17 0.85 404.97 0.85L404.97 0.85Q398.67 0.85 395.37-2.5 392.07-5.85 392.07-11.6L392.07-11.6 392.07-34.65 400.32-34.65 400.32-14.65Q400.32-11.3 400.67-9.3 401.02-7.3 402.04-6.28 403.07-5.25 404.97-5.25L404.97-5.25Q406.87-5.25 407.89-6.28 408.92-7.3 409.27-9.3 409.62-11.3 409.62-14.65L409.62-14.65 409.62-34.65 417.87-34.65ZM448.02-24.1Q448.02-20.6 446.14-18.23 444.27-15.85 441.12-14.6L441.12-14.6 450.17 0 440.87 0 433.37-13.25 431.07-13.25 431.07 0 422.87 0 422.87-34.65 433.77-34.65Q440.92-34.65 444.47-32.05 448.02-29.45 448.02-24.1L448.02-24.1ZM439.57-24.1Q439.57-26.6 438.14-27.75 436.72-28.9 433.77-28.9L433.77-28.9 431.07-28.9 431.07-18.9 434.12-18.9Q436.82-18.9 438.19-20.15 439.57-21.4 439.57-24.1L439.57-24.1ZM508.66-17.5Q508.66 0 491.91 0L491.91 0 482.56 0 482.56-34.65 491.31-34.65Q499.16-34.65 503.91-30.98 508.66-27.3 508.66-17.5L508.66-17.5ZM500.21-17.5Q500.21-23.95 498.21-26.33 496.21-28.7 492.51-28.7L492.51-28.7 490.76-28.7 490.76-5.95 492.51-5.95Q496.26-5.95 498.24-8.53 500.21-11.1 500.21-17.5L500.21-17.5ZM536.21-34.65L536.21-28.65 529.06-28.65 529.06-6.05 536.21-6.05 536.21 0 513.71 0 513.71-6.05 520.86-6.05 520.86-28.65 513.71-28.65 513.71-34.65 536.21-34.65ZM556.25 0.85Q548.85 0.85 544.98-3.83 541.1-8.5 541.1-17.4L541.1-17.4Q541.1-23.15 543.2-27.25 545.3-31.35 548.98-33.45 552.65-35.55 557.2-35.55L557.2-35.55Q560.75-35.55 563.38-34.43 566-33.3 568.2-31.25L568.2-31.25 563.9-26.8Q562.25-28.25 560.83-28.9 559.4-29.55 557.6-29.55L557.6-29.55Q553.85-29.55 551.7-26.58 549.55-23.6 549.55-17.35L549.55-17.35Q549.55-10.65 551.15-7.9 552.75-5.15 556.3-5.15L556.3-5.15Q558.65-5.15 560.6-6.2L560.6-6.2 560.6-14.15 556.25-14.15 555.45-19.85 568.35-19.85 568.35-2.65Q562.65 0.85 556.25 0.85L556.25 0.85ZM596.2-34.65L596.2-28.65 589.05-28.65 589.05-6.05 596.2-6.05 596.2 0 573.7 0 573.7-6.05 580.85-6.05 580.85-28.65 573.7-28.65 573.7-34.65 596.2-34.65ZM619-28.35L619 0 610.8 0 610.8-28.35 601.05-28.35 601.05-34.65 629.1-34.65 628.3-28.35 619-28.35ZM649.95-7.5L639.8-7.5 638 0 629.4 0 640-34.65 649.95-34.65 660.55 0 651.75 0 649.95-7.5ZM641.1-13.4L648.6-13.4 644.85-28.75 641.1-13.4ZM664.59 0L664.59-34.65 672.79-34.65 672.79-6.5 687.79-6.5 686.99 0 664.59 0ZM748.74-23.35Q748.74-17.5 745.06-14.53 741.39-11.55 735.04-11.55L735.04-11.55 731.24-11.55 731.24 0 723.04 0 723.04-34.65 733.94-34.65Q741.14-34.65 744.94-31.83 748.74-29 748.74-23.35L748.74-23.35ZM740.34-23.35Q740.34-28.8 734.09-28.8L734.09-28.8 731.24-28.8 731.24-17.45 734.49-17.45Q737.29-17.45 738.81-18.9 740.34-20.35 740.34-23.35L740.34-23.35ZM777.99-24.1Q777.99-20.6 776.11-18.23 774.24-15.85 771.09-14.6L771.09-14.6 780.14 0 770.84 0 763.34-13.25 761.04-13.25 761.04 0 752.84 0 752.84-34.65 763.74-34.65Q770.89-34.65 774.44-32.05 777.99-29.45 777.99-24.1L777.99-24.1ZM769.54-24.1Q769.54-26.6 768.11-27.75 766.69-28.9 763.74-28.9L763.74-28.9 761.04-28.9 761.04-18.9 764.09-18.9Q766.79-18.9 768.16-20.15 769.54-21.4 769.54-24.1L769.54-24.1ZM792.78-28.8L792.78-20.45 804.78-20.45 804.78-14.75 792.78-14.75 792.78-5.9 807.23-5.9 807.23 0 784.58 0 784.58-34.65 807.23-34.65 806.38-28.8 792.78-28.8ZM838.33-10.15Q838.33-6.9 836.63-4.4 834.93-1.9 831.76-0.53 828.58 0.85 824.23 0.85L824.23 0.85Q815.63 0.85 810.53-4.15L810.53-4.15 814.68-8.75Q818.63-5.25 824.03-5.25L824.03-5.25Q826.63-5.25 828.21-6.38 829.78-7.5 829.78-9.5L829.78-9.5Q829.78-11.4 828.46-12.48 827.13-13.55 823.53-14.65L823.53-14.65Q817.43-16.5 814.88-19 812.33-21.5 812.33-25.45L812.33-25.45Q812.33-28.55 814.06-30.85 815.78-33.15 818.76-34.35 821.73-35.55 825.38-35.55L825.38-35.55Q833.03-35.55 837.78-31.05L837.78-31.05 833.93-26.6Q832.18-28.05 830.16-28.78 828.13-29.5 825.98-29.5L825.98-29.5Q823.58-29.5 822.21-28.63 820.83-27.75 820.83-26.1L820.83-26.1Q820.83-25 821.46-24.25 822.08-23.5 823.53-22.85 824.98-22.2 827.88-21.3L827.88-21.3Q833.18-19.7 835.76-17.18 838.33-14.65 838.33-10.15L838.33-10.15ZM852.78-28.8L852.78-20.45 864.78-20.45 864.78-14.75 852.78-14.75 852.78-5.9 867.23-5.9 867.23 0 844.58 0 844.58-34.65 867.23-34.65 866.38-28.8 852.78-28.8ZM887.38 0L878.28-27.85Q878.78-24.05 879.13-20.53 879.48-17 879.48-13.05L879.48-13.05 879.48 0 872.53 0 872.53-34.65 882.78-34.65 891.58-6.9Q890.38-14.6 890.38-21.4L890.38-21.4 890.38-34.65 897.33-34.65 897.33 0 887.38 0ZM917.82-35.55Q921.42-35.55 924.02-34.6 926.62-33.65 928.92-31.75L928.92-31.75 924.92-26.9Q921.77-29.45 918.02-29.45L918.02-29.45Q914.47-29.45 912.3-26.45 910.12-23.45 910.12-17.4L910.12-17.4Q910.12-11.35 912.27-8.43 914.42-5.5 918.17-5.5L918.17-5.5Q920.47-5.5 922.12-6.3 923.77-7.1 925.67-8.6L925.67-8.6 929.37-3.85Q924.77 0.85 917.72 0.85L917.72 0.85Q912.97 0.85 909.35-1.25 905.72-3.35 903.67-7.48 901.62-11.6 901.62-17.4L901.62-17.4Q901.62-23.05 903.72-27.15 905.82-31.25 909.52-33.4 913.22-35.55 917.82-35.55L917.82-35.55ZM942.77-28.8L942.77-20.45 954.77-20.45 954.77-14.75 942.77-14.75 942.77-5.9 957.22-5.9 957.22 0 934.57 0 934.57-34.65 957.22-34.65 956.37-28.8 942.77-28.8Z" opacity="1" transform="matrix(1,0,0,1,0,0)" fill="white" class="slogan-text-1" id="SvgjsPath1375"></path></svg></g></svg></g></svg></g></svg></g><g><svg viewBox="0 0 226.21618426839822 226.21618426839822" height="226.21618426839822" width="226.21618426839822"><g><svg></svg></g><g id="SvgjsG1374"><svg viewBox="0 0 226.21618426839822 226.21618426839822" height="226.21618426839822" width="226.21618426839822"><g></g><g transform="matrix(1,0,0,1,48.676218184995165,48.676218184995165)"><svg viewBox="0 0 128.8637478984079 128.8637478984079" height="128.8637478984079" width="128.8637478984079"><g><svg xmlns="http://www.w3.org/2000/svg" xmlns:xlink="http://www.w3.org/1999/xlink" version="1.0" x="0" y="0" viewBox="1 1 48 48" enable-background="new 0 0 50 50" xml:space="preserve" height="128.8637478984079" width="128.8637478984079" class="icon-s-0" data-fill-palette-color="accent" id="SvgjsSvg1373"></svg></g></svg></g></svg></g></svg></g></svg></g><defs><mask></mask></defs><mask><g id="SvgjsG1372"><svg viewBox="0 0 395.52 135.3787046424143" height="135.3787046424143" width="395.52"><g><svg viewBox="0 0 660.909154347196 226.21618426839822" height="135.3787046424143" width="395.52"><g transform="matrix(1,0,0,1,265.38915434719604,57.70081611788596)"><svg viewBox="0 0 395.52 110.81455203262631" height="110.81455203262631" width="395.52"><g id="SvgjsG1371"><svg viewBox="0 0 395.52 110.81455203262631" height="110.81455203262631" width="395.52" id="SvgjsSvg1370"><g></g><g><svg viewBox="0 0 395.52 82.96686253324735" height="82.96686253324735" width="395.52"><g transform="matrix(1,0,0,1,0,0)"><svg width="395.52" viewBox="2.049999952316284 -33.75 163.0306854248047 34.21083068847656" height="82.96686253324735" data-palette-color="url(#0e07755b-92d2-4a03-b69f-6ac8dc81fe64)"></svg></g></svg></g><g transform="matrix(1,0,0,1,0,102.55334757264626)"><svg viewBox="0 0 232.209792 8.261204459980057" height="8.261204459980057" width="232.209792"><g transform="matrix(1,0,0,1,8,0)"><svg width="216.209792" viewBox="4.650000095367432 -35.54999923706055 952.5699462890625 36.39999771118164" height="8.261204459980057" data-palette-color="url(#6efb4bad-2241-4855-8132-182b649c4862)"></svg></g></svg></g></svg></g></svg></g><g><svg viewBox="0 0 226.21618426839822 226.21618426839822" height="226.21618426839822" width="226.21618426839822"><g><svg></svg></g><g id="SvgjsG1368"><svg viewBox="0 0 226.21618426839822 226.21618426839822" height="226.21618426839822" width="226.21618426839822"><g></g><g transform="matrix(1,0,0,1,48.676218184995165,48.676218184995165)"><svg viewBox="0 0 128.8637478984079 128.8637478984079" height="128.8637478984079" width="128.8637478984079"><g><svg xmlns="http://www.w3.org/2000/svg" xmlns:xlink="http://www.w3.org/1999/xlink" version="1.0" x="0" y="0" viewBox="1 1 48 48" enable-background="new 0 0 50 50" xml:space="preserve" height="128.8637478984079" width="128.8637478984079" class="icon-s-0" data-fill-palette-color="accent" id="SvgjsSvg1367"></svg></g></svg></g></svg></g></svg></g></svg></g><defs><mask></mask></defs></svg></g></mask></svg></g></mask><linearGradient x1="0" x2="1" y1="0.578" y2="0.595" id="6efb4bad-2241-4855-8132-182b649c4862"><stop stop-color="#dede50" offset="0"></stop><stop stop-color="#559c49" offset="1"></stop></linearGradient><rect width="395.5199890136719" height="135.3787078857422" fill="#000000" mask="url(#9079fb82-2b16-4d65-a9cd-dbf78e7c90c7)" data-fill-palette-color="secondary"></rect><mask id="2747b997-74a7-4628-a220-d6d4840b07c4"><g id="SvgjsG1400"><svg viewBox="0 0 395.52 135.3787046424143" height="135.3787046424143" width="395.52"><g><svg viewBox="0 0 660.909154347196 226.21618426839822" height="135.3787046424143" width="395.52"><g transform="matrix(1,0,0,1,265.38915434719604,57.70081611788596)"><svg viewBox="0 0 395.52 110.81455203262631" height="110.81455203262631" width="395.52"><g id="SvgjsG1399"><svg viewBox="0 0 395.52 110.81455203262631" height="110.81455203262631" width="395.52" id="SvgjsSvg1398"><g></g><g><svg viewBox="0 0 395.52 82.96686253324735" height="82.96686253324735" width="395.52"><g transform="matrix(1,0,0,1,0,0)"><svg width="395.52" viewBox="2.049999952316284 -33.75 163.0306854248047 34.21083068847656" height="82.96686253324735" data-palette-color="url(#0e07755b-92d2-4a03-b69f-6ac8dc81fe64)"></svg></g></svg></g><g transform="matrix(1,0,0,1,0,102.55334757264626)"><svg viewBox="0 0 232.209792 8.261204459980057" height="8.261204459980057" width="232.209792"><g transform="matrix(1,0,0,1,8,0)"><svg width="216.209792" viewBox="4.650000095367432 -35.54999923706055 952.5699462890625 36.39999771118164" height="8.261204459980057" data-palette-color="url(#6efb4bad-2241-4855-8132-182b649c4862)"></svg></g></svg></g></svg></g></svg></g><g><svg viewBox="0 0 226.21618426839822 226.21618426839822" height="226.21618426839822" width="226.21618426839822"><g><svg></svg></g><g id="SvgjsG1397"><svg viewBox="0 0 226.21618426839822 226.21618426839822" height="226.21618426839822" width="226.21618426839822"><g></g><g transform="matrix(1,0,0,1,48.676218184995165,48.676218184995165)"><svg viewBox="0 0 128.8637478984079 128.8637478984079" height="128.8637478984079" width="128.8637478984079"><g><svg xmlns="http://www.w3.org/2000/svg" xmlns:xlink="http://www.w3.org/1999/xlink" version="1.0" x="0" y="0" viewBox="1 1 48 48" enable-background="new 0 0 50 50" xml:space="preserve" height="128.8637478984079" width="128.8637478984079" class="icon-s-0" data-fill-palette-color="accent" id="SvgjsSvg1396"><g fill="white"><g fill="white"><rect x="1" y="1" fill="white" width="23" height="5"></rect><rect x="1" y="10" fill="white" width="23" height="5"></rect><rect x="1" y="19" fill="white" width="23" height="5"></rect></g><g fill="white"><rect x="26" y="26" fill="white" width="23" height="5"></rect><rect x="26" y="35" fill="white" width="23" height="5"></rect><rect x="26" y="44" fill="white" width="23" height="5"></rect></g><g fill="white"><rect x="19" y="26" fill="white" width="5" height="23"></rect><rect x="10" y="26" fill="white" width="5" height="23"></rect><rect x="1" y="26" fill="white" width="5" height="23"></rect></g><g fill="white"><rect x="44" y="1" fill="white" width="5" height="23"></rect><rect x="35" y="1" fill="white" width="5" height="23"></rect><rect x="26" y="1" fill="white" width="5" height="23"></rect></g></g></svg></g></svg></g></svg></g></svg></g></svg></g><defs><mask></mask></defs><mask><g id="SvgjsG1395"><svg viewBox="0 0 395.52 135.3787046424143" height="135.3787046424143" width="395.52"><g><svg viewBox="0 0 660.909154347196 226.21618426839822" height="135.3787046424143" width="395.52"><g transform="matrix(1,0,0,1,265.38915434719604,57.70081611788596)"><svg viewBox="0 0 395.52 110.81455203262631" height="110.81455203262631" width="395.52"><g id="SvgjsG1394"><svg viewBox="0 0 395.52 110.81455203262631" height="110.81455203262631" width="395.52" id="SvgjsSvg1393"><g></g><g><svg viewBox="0 0 395.52 82.96686253324735" height="82.96686253324735" width="395.52"><g transform="matrix(1,0,0,1,0,0)"><svg width="395.52" viewBox="2.049999952316284 -33.75 163.0306854248047 34.21083068847656" height="82.96686253324735" data-palette-color="url(#0e07755b-92d2-4a03-b69f-6ac8dc81fe64)"></svg></g></svg></g><g transform="matrix(1,0,0,1,0,102.55334757264626)"><svg viewBox="0 0 232.209792 8.261204459980057" height="8.261204459980057" width="232.209792"><g transform="matrix(1,0,0,1,8,0)"><svg width="216.209792" viewBox="4.650000095367432 -35.54999923706055 952.5699462890625 36.39999771118164" height="8.261204459980057" data-palette-color="url(#6efb4bad-2241-4855-8132-182b649c4862)"></svg></g></svg></g></svg></g></svg></g><g><svg viewBox="0 0 226.21618426839822 226.21618426839822" height="226.21618426839822" width="226.21618426839822"><g><svg></svg></g><g id="SvgjsG1391"><svg viewBox="0 0 226.21618426839822 226.21618426839822" height="226.21618426839822" width="226.21618426839822"><g></g><g transform="matrix(1,0,0,1,48.676218184995165,48.676218184995165)"><svg viewBox="0 0 128.8637478984079 128.8637478984079" height="128.8637478984079" width="128.8637478984079"><g><svg xmlns="http://www.w3.org/2000/svg" xmlns:xlink="http://www.w3.org/1999/xlink" version="1.0" x="0" y="0" viewBox="1 1 48 48" enable-background="new 0 0 50 50" xml:space="preserve" height="128.8637478984079" width="128.8637478984079" class="icon-s-0" data-fill-palette-color="accent" id="SvgjsSvg1390"></svg></g></svg></g></svg></g></svg></g></svg></g><defs><mask></mask></defs></svg></g></mask><mask><g id="SvgjsG1389"><svg viewBox="0 0 395.52 135.3787046424143" height="135.3787046424143" width="395.52"><g><svg viewBox="0 0 660.909154347196 226.21618426839822" height="135.3787046424143" width="395.52"><g transform="matrix(1,0,0,1,265.38915434719604,57.70081611788596)"><svg viewBox="0 0 395.52 110.81455203262631" height="110.81455203262631" width="395.52"><g id="SvgjsG1388"><svg viewBox="0 0 395.52 110.81455203262631" height="110.81455203262631" width="395.52" id="SvgjsSvg1387"><g></g><g><svg viewBox="0 0 395.52 82.96686253324735" height="82.96686253324735" width="395.52"><g transform="matrix(1,0,0,1,0,0)"><svg width="395.52" viewBox="2.049999952316284 -33.75 163.0306854248047 34.21083068847656" height="82.96686253324735" data-palette-color="url(#0e07755b-92d2-4a03-b69f-6ac8dc81fe64)"></svg></g></svg></g><g transform="matrix(1,0,0,1,0,102.55334757264626)"><svg viewBox="0 0 232.209792 8.261204459980057" height="8.261204459980057" width="232.209792"><g transform="matrix(1,0,0,1,8,0)"><svg width="216.209792" viewBox="4.650000095367432 -35.54999923706055 952.5699462890625 36.39999771118164" height="8.261204459980057" data-palette-color="url(#6efb4bad-2241-4855-8132-182b649c4862)"></svg></g></svg></g></svg></g></svg></g><g><svg viewBox="0 0 226.21618426839822 226.21618426839822" height="226.21618426839822" width="226.21618426839822"><g><svg></svg></g><g id="SvgjsG1385"><svg viewBox="0 0 226.21618426839822 226.21618426839822" height="226.21618426839822" width="226.21618426839822"><g></g><g transform="matrix(1,0,0,1,48.676218184995165,48.676218184995165)"><svg viewBox="0 0 128.8637478984079 128.8637478984079" height="128.8637478984079" width="128.8637478984079"><g><svg xmlns="http://www.w3.org/2000/svg" xmlns:xlink="http://www.w3.org/1999/xlink" version="1.0" x="0" y="0" viewBox="1 1 48 48" enable-background="new 0 0 50 50" xml:space="preserve" height="128.8637478984079" width="128.8637478984079" class="icon-s-0" data-fill-palette-color="accent" id="SvgjsSvg1384"></svg></g></svg></g></svg></g></svg></g></svg></g><defs><mask></mask></defs><mask><g id="SvgjsG1383"><svg viewBox="0 0 395.52 135.3787046424143" height="135.3787046424143" width="395.52"><g><svg viewBox="0 0 660.909154347196 226.21618426839822" height="135.3787046424143" width="395.52"><g transform="matrix(1,0,0,1,265.38915434719604,57.70081611788596)"><svg viewBox="0 0 395.52 110.81455203262631" height="110.81455203262631" width="395.52"><g id="SvgjsG1382"><svg viewBox="0 0 395.52 110.81455203262631" height="110.81455203262631" width="395.52" id="SvgjsSvg1381"><g></g><g><svg viewBox="0 0 395.52 82.96686253324735" height="82.96686253324735" width="395.52"><g transform="matrix(1,0,0,1,0,0)"><svg width="395.52" viewBox="2.049999952316284 -33.75 163.0306854248047 34.21083068847656" height="82.96686253324735" data-palette-color="url(#0e07755b-92d2-4a03-b69f-6ac8dc81fe64)"></svg></g></svg></g><g transform="matrix(1,0,0,1,0,102.55334757264626)"><svg viewBox="0 0 232.209792 8.261204459980057" height="8.261204459980057" width="232.209792"><g transform="matrix(1,0,0,1,8,0)"><svg width="216.209792" viewBox="4.650000095367432 -35.54999923706055 952.5699462890625 36.39999771118164" height="8.261204459980057" data-palette-color="url(#6efb4bad-2241-4855-8132-182b649c4862)"></svg></g></svg></g></svg></g></svg></g><g><svg viewBox="0 0 226.21618426839822 226.21618426839822" height="226.21618426839822" width="226.21618426839822"><g><svg></svg></g><g id="SvgjsG1380"><svg viewBox="0 0 226.21618426839822 226.21618426839822" height="226.21618426839822" width="226.21618426839822"><g></g><g transform="matrix(1,0,0,1,48.676218184995165,48.676218184995165)"><svg viewBox="0 0 128.8637478984079 128.8637478984079" height="128.8637478984079" width="128.8637478984079"><g><svg xmlns="http://www.w3.org/2000/svg" xmlns:xlink="http://www.w3.org/1999/xlink" version="1.0" x="0" y="0" viewBox="1 1 48 48" enable-background="new 0 0 50 50" xml:space="preserve" height="128.8637478984079" width="128.8637478984079" class="icon-s-0" data-fill-palette-color="accent" id="SvgjsSvg1379"></svg></g></svg></g></svg></g></svg></g></svg></g><defs><mask></mask></defs></svg></g></mask></svg></g></mask></svg></g></mask><linearGradient x1="0" x2="1" y1="0.578" y2="0.595" id="f768645d-e619-43bd-85c8-9e1ce2dcccf3"><stop stop-color="#dede50" offset="0"></stop><stop stop-color="#559c49" offset="1"></stop></linearGradient><rect width="395.5199890136719" height="135.3787078857422" fill="#000000" mask="url(#2747b997-74a7-4628-a220-d6d4840b07c4)" data-fill-palette-color="accent"></rect><mask id="bf8d57f5-b0b9-46cc-bbf4-dce4d88eb831"><g id="SvgjsG1442"><svg viewBox="0 0 395.52 135.3787046424143" height="135.3787046424143" width="395.52"><g><svg viewBox="0 0 660.909154347196 226.21618426839822" height="135.3787046424143" width="395.52"><g transform="matrix(1,0,0,1,265.38915434719604,57.70081611788596)"><svg viewBox="0 0 395.52 110.81455203262631" height="110.81455203262631" width="395.52"><g id="SvgjsG1441"><svg viewBox="0 0 395.52 110.81455203262631" height="110.81455203262631" width="395.52" id="SvgjsSvg1440"><g><rect width="163.310208" height="7.482037285050381" y="102.9429311601111" x="232.209792" fill="white"></rect></g><g><svg viewBox="0 0 395.52 82.96686253324735" height="82.96686253324735" width="395.52"><g transform="matrix(1,0,0,1,0,0)"><svg width="395.52" viewBox="2.049999952316284 -33.75 163.0306854248047 34.21083068847656" height="82.96686253324735" data-palette-color="url(#0e07755b-92d2-4a03-b69f-6ac8dc81fe64)"></svg></g></svg></g><g transform="matrix(1,0,0,1,0,102.55334757264626)"><svg viewBox="0 0 232.209792 8.261204459980057" height="8.261204459980057" width="232.209792"><g transform="matrix(1,0,0,1,8,0)"><svg width="216.209792" viewBox="4.650000095367432 -35.54999923706055 952.5699462890625 36.39999771118164" height="8.261204459980057" data-palette-color="url(#6efb4bad-2241-4855-8132-182b649c4862)"></svg></g></svg></g></svg></g></svg></g><g><svg viewBox="0 0 226.21618426839822 226.21618426839822" height="226.21618426839822" width="226.21618426839822"><g><svg></svg></g><g id="SvgjsG1439"><svg viewBox="0 0 226.21618426839822 226.21618426839822" height="226.21618426839822" width="226.21618426839822"><g><path d="M0 113.108c0-62.468 50.64-113.108 113.108-113.108 62.468 0 113.108 50.64 113.108 113.108 0 62.468-50.64 113.108-113.108 113.108-62.468 0-113.108-50.64-113.108-113.108zM113.108 218.734c58.336 0 105.626-47.29 105.626-105.626 0-58.336-47.29-105.626-105.626-105.626-58.336 0-105.626 47.29-105.626 105.626 0 58.336 47.29 105.626 105.626 105.626z" fill="white" stroke="transparent"></path></g><g transform="matrix(1,0,0,1,48.676218184995165,48.676218184995165)"><svg viewBox="0 0 128.8637478984079 128.8637478984079" height="128.8637478984079" width="128.8637478984079"><g><svg xmlns="http://www.w3.org/2000/svg" xmlns:xlink="http://www.w3.org/1999/xlink" version="1.0" x="0" y="0" viewBox="1 1 48 48" enable-background="new 0 0 50 50" xml:space="preserve" height="128.8637478984079" width="128.8637478984079" class="icon-s-0" data-fill-palette-color="accent" id="SvgjsSvg1438"></svg></g></svg></g></svg></g></svg></g></svg></g><defs><mask></mask></defs><mask><g id="SvgjsG1437"><svg viewBox="0 0 395.52 135.3787046424143" height="135.3787046424143" width="395.52"><g><svg viewBox="0 0 660.909154347196 226.21618426839822" height="135.3787046424143" width="395.52"><g transform="matrix(1,0,0,1,265.38915434719604,57.70081611788596)"><svg viewBox="0 0 395.52 110.81455203262631" height="110.81455203262631" width="395.52"><g id="SvgjsG1436"><svg viewBox="0 0 395.52 110.81455203262631" height="110.81455203262631" width="395.52" id="SvgjsSvg1435"><g></g><g><svg viewBox="0 0 395.52 82.96686253324735" height="82.96686253324735" width="395.52"><g transform="matrix(1,0,0,1,0,0)"><svg width="395.52" viewBox="2.049999952316284 -33.75 163.0306854248047 34.21083068847656" height="82.96686253324735" data-palette-color="url(#0e07755b-92d2-4a03-b69f-6ac8dc81fe64)"></svg></g></svg></g><g transform="matrix(1,0,0,1,0,102.55334757264626)"><svg viewBox="0 0 232.209792 8.261204459980057" height="8.261204459980057" width="232.209792"><g transform="matrix(1,0,0,1,8,0)"><svg width="216.209792" viewBox="4.650000095367432 -35.54999923706055 952.5699462890625 36.39999771118164" height="8.261204459980057" data-palette-color="url(#6efb4bad-2241-4855-8132-182b649c4862)"></svg></g></svg></g></svg></g></svg></g><g><svg viewBox="0 0 226.21618426839822 226.21618426839822" height="226.21618426839822" width="226.21618426839822"><g><svg></svg></g><g id="SvgjsG1433"><svg viewBox="0 0 226.21618426839822 226.21618426839822" height="226.21618426839822" width="226.21618426839822"><g></g><g transform="matrix(1,0,0,1,48.676218184995165,48.676218184995165)"><svg viewBox="0 0 128.8637478984079 128.8637478984079" height="128.8637478984079" width="128.8637478984079"><g><svg xmlns="http://www.w3.org/2000/svg" xmlns:xlink="http://www.w3.org/1999/xlink" version="1.0" x="0" y="0" viewBox="1 1 48 48" enable-background="new 0 0 50 50" xml:space="preserve" height="128.8637478984079" width="128.8637478984079" class="icon-s-0" data-fill-palette-color="accent" id="SvgjsSvg1432"></svg></g></svg></g></svg></g></svg></g></svg></g><defs><mask></mask></defs></svg></g></mask><mask><g id="SvgjsG1431"><svg viewBox="0 0 395.52 135.3787046424143" height="135.3787046424143" width="395.52"><g><svg viewBox="0 0 660.909154347196 226.21618426839822" height="135.3787046424143" width="395.52"><g transform="matrix(1,0,0,1,265.38915434719604,57.70081611788596)"><svg viewBox="0 0 395.52 110.81455203262631" height="110.81455203262631" width="395.52"><g id="SvgjsG1430"><svg viewBox="0 0 395.52 110.81455203262631" height="110.81455203262631" width="395.52" id="SvgjsSvg1429"><g></g><g><svg viewBox="0 0 395.52 82.96686253324735" height="82.96686253324735" width="395.52"><g transform="matrix(1,0,0,1,0,0)"><svg width="395.52" viewBox="2.049999952316284 -33.75 163.0306854248047 34.21083068847656" height="82.96686253324735" data-palette-color="url(#0e07755b-92d2-4a03-b69f-6ac8dc81fe64)"></svg></g></svg></g><g transform="matrix(1,0,0,1,0,102.55334757264626)"><svg viewBox="0 0 232.209792 8.261204459980057" height="8.261204459980057" width="232.209792"><g transform="matrix(1,0,0,1,8,0)"><svg width="216.209792" viewBox="4.650000095367432 -35.54999923706055 952.5699462890625 36.39999771118164" height="8.261204459980057" data-palette-color="url(#6efb4bad-2241-4855-8132-182b649c4862)"></svg></g></svg></g></svg></g></svg></g><g><svg viewBox="0 0 226.21618426839822 226.21618426839822" height="226.21618426839822" width="226.21618426839822"><g><svg></svg></g><g id="SvgjsG1427"><svg viewBox="0 0 226.21618426839822 226.21618426839822" height="226.21618426839822" width="226.21618426839822"><g></g><g transform="matrix(1,0,0,1,48.676218184995165,48.676218184995165)"><svg viewBox="0 0 128.8637478984079 128.8637478984079" height="128.8637478984079" width="128.8637478984079"><g><svg xmlns="http://www.w3.org/2000/svg" xmlns:xlink="http://www.w3.org/1999/xlink" version="1.0" x="0" y="0" viewBox="1 1 48 48" enable-background="new 0 0 50 50" xml:space="preserve" height="128.8637478984079" width="128.8637478984079" class="icon-s-0" data-fill-palette-color="accent" id="SvgjsSvg1426"></svg></g></svg></g></svg></g></svg></g></svg></g><defs><mask></mask></defs><mask><g id="SvgjsG1425"><svg viewBox="0 0 395.52 135.3787046424143" height="135.3787046424143" width="395.52"><g><svg viewBox="0 0 660.909154347196 226.21618426839822" height="135.3787046424143" width="395.52"><g transform="matrix(1,0,0,1,265.38915434719604,57.70081611788596)"><svg viewBox="0 0 395.52 110.81455203262631" height="110.81455203262631" width="395.52"><g id="SvgjsG1424"><svg viewBox="0 0 395.52 110.81455203262631" height="110.81455203262631" width="395.52" id="SvgjsSvg1423"><g></g><g><svg viewBox="0 0 395.52 82.96686253324735" height="82.96686253324735" width="395.52"><g transform="matrix(1,0,0,1,0,0)"><svg width="395.52" viewBox="2.049999952316284 -33.75 163.0306854248047 34.21083068847656" height="82.96686253324735" data-palette-color="url(#0e07755b-92d2-4a03-b69f-6ac8dc81fe64)"></svg></g></svg></g><g transform="matrix(1,0,0,1,0,102.55334757264626)"><svg viewBox="0 0 232.209792 8.261204459980057" height="8.261204459980057" width="232.209792"><g transform="matrix(1,0,0,1,8,0)"><svg width="216.209792" viewBox="4.650000095367432 -35.54999923706055 952.5699462890625 36.39999771118164" height="8.261204459980057" data-palette-color="url(#6efb4bad-2241-4855-8132-182b649c4862)"></svg></g></svg></g></svg></g></svg></g><g><svg viewBox="0 0 226.21618426839822 226.21618426839822" height="226.21618426839822" width="226.21618426839822"><g><svg></svg></g><g id="SvgjsG1422"><svg viewBox="0 0 226.21618426839822 226.21618426839822" height="226.21618426839822" width="226.21618426839822"><g></g><g transform="matrix(1,0,0,1,48.676218184995165,48.676218184995165)"><svg viewBox="0 0 128.8637478984079 128.8637478984079" height="128.8637478984079" width="128.8637478984079"><g><svg xmlns="http://www.w3.org/2000/svg" xmlns:xlink="http://www.w3.org/1999/xlink" version="1.0" x="0" y="0" viewBox="1 1 48 48" enable-background="new 0 0 50 50" xml:space="preserve" height="128.8637478984079" width="128.8637478984079" class="icon-s-0" data-fill-palette-color="accent" id="SvgjsSvg1421"></svg></g></svg></g></svg></g></svg></g></svg></g><defs><mask></mask></defs></svg></g></mask></svg></g></mask><mask><g id="SvgjsG1420"><svg viewBox="0 0 395.52 135.3787046424143" height="135.3787046424143" width="395.52"><g><svg viewBox="0 0 660.909154347196 226.21618426839822" height="135.3787046424143" width="395.52"><g transform="matrix(1,0,0,1,265.38915434719604,57.70081611788596)"><svg viewBox="0 0 395.52 110.81455203262631" height="110.81455203262631" width="395.52"><g id="SvgjsG1419"><svg viewBox="0 0 395.52 110.81455203262631" height="110.81455203262631" width="395.52" id="SvgjsSvg1418"><g></g><g><svg viewBox="0 0 395.52 82.96686253324735" height="82.96686253324735" width="395.52"><g transform="matrix(1,0,0,1,0,0)"><svg width="395.52" viewBox="2.049999952316284 -33.75 163.0306854248047 34.21083068847656" height="82.96686253324735" data-palette-color="url(#0e07755b-92d2-4a03-b69f-6ac8dc81fe64)"></svg></g></svg></g><g transform="matrix(1,0,0,1,0,102.55334757264626)"><svg viewBox="0 0 232.209792 8.261204459980057" height="8.261204459980057" width="232.209792"><g transform="matrix(1,0,0,1,8,0)"><svg width="216.209792" viewBox="4.650000095367432 -35.54999923706055 952.5699462890625 36.39999771118164" height="8.261204459980057" data-palette-color="url(#6efb4bad-2241-4855-8132-182b649c4862)"></svg></g></svg></g></svg></g></svg></g><g><svg viewBox="0 0 226.21618426839822 226.21618426839822" height="226.21618426839822" width="226.21618426839822"><g><svg></svg></g><g id="SvgjsG1417"><svg viewBox="0 0 226.21618426839822 226.21618426839822" height="226.21618426839822" width="226.21618426839822"><g></g><g transform="matrix(1,0,0,1,48.676218184995165,48.676218184995165)"><svg viewBox="0 0 128.8637478984079 128.8637478984079" height="128.8637478984079" width="128.8637478984079"><g><svg xmlns="http://www.w3.org/2000/svg" xmlns:xlink="http://www.w3.org/1999/xlink" version="1.0" x="0" y="0" viewBox="1 1 48 48" enable-background="new 0 0 50 50" xml:space="preserve" height="128.8637478984079" width="128.8637478984079" class="icon-s-0" data-fill-palette-color="accent" id="SvgjsSvg1416"></svg></g></svg></g></svg></g></svg></g></svg></g><defs><mask></mask></defs><mask><g id="SvgjsG1415"><svg viewBox="0 0 395.52 135.3787046424143" height="135.3787046424143" width="395.52"><g><svg viewBox="0 0 660.909154347196 226.21618426839822" height="135.3787046424143" width="395.52"><g transform="matrix(1,0,0,1,265.38915434719604,57.70081611788596)"><svg viewBox="0 0 395.52 110.81455203262631" height="110.81455203262631" width="395.52"><g id="SvgjsG1414"><svg viewBox="0 0 395.52 110.81455203262631" height="110.81455203262631" width="395.52" id="SvgjsSvg1413"><g></g><g><svg viewBox="0 0 395.52 82.96686253324735" height="82.96686253324735" width="395.52"><g transform="matrix(1,0,0,1,0,0)"><svg width="395.52" viewBox="2.049999952316284 -33.75 163.0306854248047 34.21083068847656" height="82.96686253324735" data-palette-color="url(#0e07755b-92d2-4a03-b69f-6ac8dc81fe64)"></svg></g></svg></g><g transform="matrix(1,0,0,1,0,102.55334757264626)"><svg viewBox="0 0 232.209792 8.261204459980057" height="8.261204459980057" width="232.209792"><g transform="matrix(1,0,0,1,8,0)"><svg width="216.209792" viewBox="4.650000095367432 -35.54999923706055 952.5699462890625 36.39999771118164" height="8.261204459980057" data-palette-color="url(#6efb4bad-2241-4855-8132-182b649c4862)"></svg></g></svg></g></svg></g></svg></g><g><svg viewBox="0 0 226.21618426839822 226.21618426839822" height="226.21618426839822" width="226.21618426839822"><g><svg></svg></g><g id="SvgjsG1412"><svg viewBox="0 0 226.21618426839822 226.21618426839822" height="226.21618426839822" width="226.21618426839822"><g></g><g transform="matrix(1,0,0,1,48.676218184995165,48.676218184995165)"><svg viewBox="0 0 128.8637478984079 128.8637478984079" height="128.8637478984079" width="128.8637478984079"><g><svg xmlns="http://www.w3.org/2000/svg" xmlns:xlink="http://www.w3.org/1999/xlink" version="1.0" x="0" y="0" viewBox="1 1 48 48" enable-background="new 0 0 50 50" xml:space="preserve" height="128.8637478984079" width="128.8637478984079" class="icon-s-0" data-fill-palette-color="accent" id="SvgjsSvg1411"></svg></g></svg></g></svg></g></svg></g></svg></g><defs><mask></mask></defs></svg></g></mask><mask><g id="SvgjsG1410"><svg viewBox="0 0 395.52 135.3787046424143" height="135.3787046424143" width="395.52"><g><svg viewBox="0 0 660.909154347196 226.21618426839822" height="135.3787046424143" width="395.52"><g transform="matrix(1,0,0,1,265.38915434719604,57.70081611788596)"><svg viewBox="0 0 395.52 110.81455203262631" height="110.81455203262631" width="395.52"><g id="SvgjsG1409"><svg viewBox="0 0 395.52 110.81455203262631" height="110.81455203262631" width="395.52" id="SvgjsSvg1408"><g></g><g><svg viewBox="0 0 395.52 82.96686253324735" height="82.96686253324735" width="395.52"><g transform="matrix(1,0,0,1,0,0)"><svg width="395.52" viewBox="2.049999952316284 -33.75 163.0306854248047 34.21083068847656" height="82.96686253324735" data-palette-color="url(#0e07755b-92d2-4a03-b69f-6ac8dc81fe64)"></svg></g></svg></g><g transform="matrix(1,0,0,1,0,102.55334757264626)"><svg viewBox="0 0 232.209792 8.261204459980057" height="8.261204459980057" width="232.209792"><g transform="matrix(1,0,0,1,8,0)"><svg width="216.209792" viewBox="4.650000095367432 -35.54999923706055 952.5699462890625 36.39999771118164" height="8.261204459980057" data-palette-color="url(#6efb4bad-2241-4855-8132-182b649c4862)"></svg></g></svg></g></svg></g></svg></g><g><svg viewBox="0 0 226.21618426839822 226.21618426839822" height="226.21618426839822" width="226.21618426839822"><g><svg></svg></g><g id="SvgjsG1407"><svg viewBox="0 0 226.21618426839822 226.21618426839822" height="226.21618426839822" width="226.21618426839822"><g></g><g transform="matrix(1,0,0,1,48.676218184995165,48.676218184995165)"><svg viewBox="0 0 128.8637478984079 128.8637478984079" height="128.8637478984079" width="128.8637478984079"><g><svg xmlns="http://www.w3.org/2000/svg" xmlns:xlink="http://www.w3.org/1999/xlink" version="1.0" x="0" y="0" viewBox="1 1 48 48" enable-background="new 0 0 50 50" xml:space="preserve" height="128.8637478984079" width="128.8637478984079" class="icon-s-0" data-fill-palette-color="accent" id="SvgjsSvg1406"></svg></g></svg></g></svg></g></svg></g></svg></g><defs><mask></mask></defs><mask><g id="SvgjsG1405"><svg viewBox="0 0 395.52 135.3787046424143" height="135.3787046424143" width="395.52"><g><svg viewBox="0 0 660.909154347196 226.21618426839822" height="135.3787046424143" width="395.52"><g transform="matrix(1,0,0,1,265.38915434719604,57.70081611788596)"><svg viewBox="0 0 395.52 110.81455203262631" height="110.81455203262631" width="395.52"><g id="SvgjsG1404"><svg viewBox="0 0 395.52 110.81455203262631" height="110.81455203262631" width="395.52" id="SvgjsSvg1403"><g></g><g><svg viewBox="0 0 395.52 82.96686253324735" height="82.96686253324735" width="395.52"><g transform="matrix(1,0,0,1,0,0)"><svg width="395.52" viewBox="2.049999952316284 -33.75 163.0306854248047 34.21083068847656" height="82.96686253324735" data-palette-color="url(#0e07755b-92d2-4a03-b69f-6ac8dc81fe64)"></svg></g></svg></g><g transform="matrix(1,0,0,1,0,102.55334757264626)"><svg viewBox="0 0 232.209792 8.261204459980057" height="8.261204459980057" width="232.209792"><g transform="matrix(1,0,0,1,8,0)"><svg width="216.209792" viewBox="4.650000095367432 -35.54999923706055 952.5699462890625 36.39999771118164" height="8.261204459980057" data-palette-color="url(#6efb4bad-2241-4855-8132-182b649c4862)"></svg></g></svg></g></svg></g></svg></g><g><svg viewBox="0 0 226.21618426839822 226.21618426839822" height="226.21618426839822" width="226.21618426839822"><g><svg></svg></g><g id="SvgjsG1402"><svg viewBox="0 0 226.21618426839822 226.21618426839822" height="226.21618426839822" width="226.21618426839822"><g></g><g transform="matrix(1,0,0,1,48.676218184995165,48.676218184995165)"><svg viewBox="0 0 128.8637478984079 128.8637478984079" height="128.8637478984079" width="128.8637478984079"><g><svg xmlns="http://www.w3.org/2000/svg" xmlns:xlink="http://www.w3.org/1999/xlink" version="1.0" x="0" y="0" viewBox="1 1 48 48" enable-background="new 0 0 50 50" xml:space="preserve" height="128.8637478984079" width="128.8637478984079" class="icon-s-0" data-fill-palette-color="accent" id="SvgjsSvg1401"></svg></g></svg></g></svg></g></svg></g></svg></g><defs><mask></mask></defs></svg></g></mask></svg></g></mask></svg></g></mask></svg></g></mask><linearGradient x1="0" x2="1" y1="0.578" y2="0.595" id="e3f714f8-4f21-4d2e-8860-0cb9345c7360"><stop stop-color="#dede50" offset="0"></stop><stop stop-color="#559c49" offset="1"></stop></linearGradient></svg><rect width="395.52" height="135.3787046424143" fill="none" stroke="none" visibility="hidden"></rect></g></svg></g></svg>